<mxfile host="app.diagrams.net" modified="2023-05-20T07:36:41.244Z" agent="Mozilla/5.0 (Windows NT 10.0; Win64; x64) AppleWebKit/537.36 (KHTML, like Gecko) Chrome/113.0.0.0 Safari/537.36" etag="WSZ2uCYzFU3FobA3Apsl" version="21.3.2" type="github">
  <diagram name="第 1 页" id="zfQmn6_-_4E3Dj6bDRYP">
    <mxGraphModel dx="1373" dy="771" grid="0" gridSize="10" guides="1" tooltips="1" connect="1" arrows="1" fold="1" page="1" pageScale="1" pageWidth="827" pageHeight="1169" math="0" shadow="0">
      <root>
        <mxCell id="0" />
        <mxCell id="1" parent="0" />
        <mxCell id="-Yh4278WZ80eF9NgIZAu-4" style="edgeStyle=orthogonalEdgeStyle;rounded=0;orthogonalLoop=1;jettySize=auto;html=1;" edge="1" parent="1" source="-Yh4278WZ80eF9NgIZAu-1" target="-Yh4278WZ80eF9NgIZAu-2">
          <mxGeometry relative="1" as="geometry" />
        </mxCell>
        <mxCell id="-Yh4278WZ80eF9NgIZAu-1" value="" style="sketch=0;outlineConnect=0;fontColor=#232F3E;gradientColor=none;fillColor=#232F3D;strokeColor=none;dashed=0;verticalLabelPosition=bottom;verticalAlign=top;align=center;html=1;fontSize=12;fontStyle=0;aspect=fixed;pointerEvents=1;shape=mxgraph.aws4.user;" vertex="1" parent="1">
          <mxGeometry x="40" y="260" width="85" height="85" as="geometry" />
        </mxCell>
        <mxCell id="-Yh4278WZ80eF9NgIZAu-5" style="edgeStyle=orthogonalEdgeStyle;rounded=0;orthogonalLoop=1;jettySize=auto;html=1;" edge="1" parent="1" source="-Yh4278WZ80eF9NgIZAu-2" target="-Yh4278WZ80eF9NgIZAu-3">
          <mxGeometry relative="1" as="geometry" />
        </mxCell>
        <mxCell id="-Yh4278WZ80eF9NgIZAu-2" value="" style="shadow=0;dashed=0;html=1;strokeColor=none;fillColor=#4495D1;labelPosition=center;verticalLabelPosition=bottom;verticalAlign=top;align=center;outlineConnect=0;shape=mxgraph.veeam.proxy_server;" vertex="1" parent="1">
          <mxGeometry x="300" y="260" width="76" height="72" as="geometry" />
        </mxCell>
        <mxCell id="-Yh4278WZ80eF9NgIZAu-3" value="" style="sketch=0;pointerEvents=1;shadow=0;dashed=0;html=1;strokeColor=none;fillColor=#505050;labelPosition=center;verticalLabelPosition=bottom;verticalAlign=top;outlineConnect=0;align=center;shape=mxgraph.office.concepts.book_journal;" vertex="1" parent="1">
          <mxGeometry x="627" y="275" width="41" height="49" as="geometry" />
        </mxCell>
        <mxCell id="-Yh4278WZ80eF9NgIZAu-6" value="&lt;div style=&quot;text-align: left;&quot;&gt;&lt;span style=&quot;background-color: initial;&quot;&gt;代理判断，该用户是否有权限查看&lt;/span&gt;&lt;/div&gt;&lt;div style=&quot;text-align: left;&quot;&gt;&lt;span style=&quot;background-color: initial;&quot;&gt;有：查看&lt;/span&gt;&lt;/div&gt;&lt;div style=&quot;text-align: left;&quot;&gt;&lt;span style=&quot;background-color: initial;&quot;&gt;无：拒绝&lt;/span&gt;&lt;/div&gt;" style="text;html=1;align=center;verticalAlign=middle;resizable=0;points=[];autosize=1;strokeColor=none;fillColor=none;" vertex="1" parent="1">
          <mxGeometry x="262" y="340" width="198" height="55" as="geometry" />
        </mxCell>
      </root>
    </mxGraphModel>
  </diagram>
</mxfile>
